<svg width="36" height="36" viewBox="0 0 36 36" fill="none" xmlns="http://www.w3.org/2000/svg">
<path d="M16.0005 22.6264C17.5641 23.0396 20.9802 23.9416 21.5234 21.7593C22.0801 19.5264 18.7649 18.7835 17.1489 18.4207C16.9685 18.3819 16.8094 18.3431 16.6775 18.3121L15.6261 22.5294C15.7328 22.5546 15.8589 22.5876 16.0005 22.6264ZM17.4729 16.4633C18.7765 16.8125 21.6204 17.5691 22.1151 15.5865C22.6194 13.5574 19.857 12.9483 18.5068 12.6476C18.3752 12.6188 18.2439 12.5884 18.113 12.5564L17.1586 16.3819C17.2498 16.4032 17.3545 16.4323 17.4729 16.4633Z" fill="white"/>
<path fill-rule="evenodd" clip-rule="evenodd" d="M13.9791 34.9837C18.4262 35.9787 23.086 35.1954 26.9635 32.8013C30.8409 30.4071 33.6286 26.5919 34.7312 22.1703C35.8338 17.7487 35.1639 13.0712 32.8647 9.13678C30.5654 5.20235 26.819 2.32283 22.4254 1.11317C17.9342 -0.00594968 13.1824 0.704561 9.21494 3.08845C5.24749 5.47233 2.38931 9.33439 1.26893 13.8253C0.148634 18.3166 0.858362 23.0689 3.24199 27.0369C5.62561 31.0049 9.48787 33.8634 13.9791 34.9837ZM22.0588 11.2161C24.4778 12.0503 26.249 13.2977 25.8998 15.6197C25.6476 17.321 24.7048 18.1455 23.4536 18.4326C25.1723 19.3288 26.0472 20.7022 25.2131 23.0805C24.181 26.0331 21.7232 26.2814 18.4564 25.6645L17.663 28.842L15.7483 28.3648L16.5301 25.23C16.0198 25.1033 15.5109 24.9714 15.0034 24.8342L14.2177 27.9827L12.305 27.5055L13.0965 24.324L12.5999 24.194L11.7308 23.971L9.23802 23.3502L10.1886 21.1581C10.1886 21.1581 11.6008 21.5325 11.5814 21.5034C12.1246 21.6392 12.3651 21.2842 12.4602 21.0495L13.7134 16.0271C13.7677 16.0404 13.8221 16.054 13.8763 16.0678L13.9151 16.0775C13.85 16.0518 13.7832 16.0304 13.7153 16.0135L14.6077 12.4286C14.6329 12.0212 14.4913 11.5071 13.7153 11.3151C13.7463 11.2957 12.3263 10.9678 12.3263 10.9678L12.8346 8.92319L15.4767 9.58275V9.59245C15.8725 9.68945 16.2818 9.7845 16.6989 9.87956L17.4845 6.73304L19.3973 7.21026L18.6291 10.2947C19.1431 10.4111 19.6611 10.5294 20.1635 10.6555L20.9278 7.59048L22.8445 8.06963L22.0588 11.2161Z" fill="white"/>
</svg>
